<svg preserveAspectRatio="none" overflow="visible" style="display: block;" width="18.0583" height="16.3917" viewBox="0 0 18.0583 16.3917" fill="none" xmlns="http://www.w3.org/2000/svg">
<path id="Icon" d="M17.3625 15.6958V14.0292C17.3625 12.476 16.3002 11.1709 14.8625 10.8008M11.9458 0.938132C13.1674 1.43262 14.0292 2.63026 14.0292 4.02917C14.0292 5.42807 13.1674 6.62571 11.9458 7.1202M13.1958 15.6958C13.1958 14.1427 13.1958 13.3661 12.9421 12.7536C12.6038 11.9368 11.9549 11.2879 11.1381 10.9496C10.5255 10.6958 9.74897 10.6958 8.19583 10.6958H5.69583C4.14269 10.6958 3.36613 10.6958 2.75356 10.9496C1.9368 11.2879 1.28788 11.9368 0.949568 12.7536C0.695834 13.3661 0.695834 14.1427 0.695834 15.6958M10.2792 4.02917C10.2792 5.87012 8.78678 7.3625 6.94583 7.3625C5.10488 7.3625 3.6125 5.87012 3.6125 4.02917C3.6125 2.18822 5.10488 0.695833 6.94583 0.695833C8.78678 0.695833 10.2792 2.18822 10.2792 4.02917Z" stroke="#9AA2AB" stroke-width="1.39167" stroke-linecap="round" stroke-linejoin="round"/>
</svg>
