<svg preserveAspectRatio="none" overflow="visible" style="display: block;" width="18.3333" height="16.6667" viewBox="0 0 18.3333 16.6667" fill="none" xmlns="http://www.w3.org/2000/svg">
<path id="Icon" d="M17.5 15.8333V14.1667C17.5 12.6135 16.4377 11.3084 15 10.9383M12.0833 1.07563C13.3049 1.57012 14.1667 2.76776 14.1667 4.16667C14.1667 5.56557 13.3049 6.76321 12.0833 7.2577M13.3333 15.8333C13.3333 14.2802 13.3333 13.5036 13.0796 12.8911C12.7413 12.0743 12.0924 11.4254 11.2756 11.0871C10.663 10.8333 9.88647 10.8333 8.33333 10.8333H5.83333C4.2802 10.8333 3.50363 10.8333 2.89106 11.0871C2.0743 11.4254 1.42538 12.0743 1.08707 12.8911C0.833334 13.5036 0.833334 14.2802 0.833334 15.8333M10.4167 4.16667C10.4167 6.00762 8.92428 7.5 7.08333 7.5C5.24238 7.5 3.75 6.00762 3.75 4.16667C3.75 2.32572 5.24238 0.833333 7.08333 0.833333C8.92428 0.833333 10.4167 2.32572 10.4167 4.16667Z" stroke="#9AA2AB" stroke-width="1.66667" stroke-linecap="round" stroke-linejoin="round"/>
</svg>
