<svg preserveAspectRatio="none" overflow="visible" style="display: block;" width="5.70423" height="5.70369" viewBox="0 0 5.70423 5.70369" fill="none" xmlns="http://www.w3.org/2000/svg">
<path id="Vector" d="M3.59432 0.516147C3.69625 0.618198 3.83453 0.675596 3.97876 0.675723H4.48432C4.6286 0.675723 4.76697 0.733038 4.86899 0.835059C4.97101 0.93708 5.02833 1.07545 5.02833 1.21973V1.72493C5.02833 1.86928 5.08563 2.00782 5.1879 2.10973L5.54477 2.46696C5.59533 2.51748 5.63543 2.57747 5.66279 2.64349C5.69015 2.70952 5.70423 2.78028 5.70423 2.85175C5.70423 2.92322 5.69015 2.99399 5.66279 3.06002C5.63543 3.12604 5.59533 3.18603 5.54477 3.23655L5.18754 3.59378C5.08549 3.6957 5.02809 3.83398 5.02797 3.97821V4.48378C5.02797 4.62806 4.97065 4.76643 4.86863 4.86845C4.76661 4.97047 4.62824 5.02779 4.48396 5.02779H3.97876C3.83453 5.02791 3.69625 5.08531 3.59432 5.18736L3.23673 5.54459C3.13473 5.64647 2.99646 5.70369 2.8523 5.70369C2.70814 5.70369 2.56987 5.64647 2.46787 5.54459L2.11027 5.187C2.00835 5.08495 1.87007 5.02755 1.72584 5.02742H1.22027C1.07606 5.02742 0.937742 4.97016 0.835731 4.86821C0.73372 4.76627 0.676363 4.62799 0.676267 4.48378V3.97858C0.67614 3.83434 0.618742 3.69607 0.516691 3.59414L0.159459 3.23619C0.108907 3.18567 0.0688043 3.12568 0.0414435 3.05965C0.0140827 2.99363 0 2.92286 0 2.85139C0 2.77992 0.0140827 2.70915 0.0414435 2.64313C0.0688043 2.5771 0.108907 2.51712 0.159459 2.4666L0.516691 2.10936C0.618653 2.00753 0.676044 1.8694 0.676267 1.7253V1.21973C0.676267 1.07545 0.733582 0.93708 0.835603 0.835059C0.937624 0.733038 1.07599 0.675723 1.22027 0.675723H1.72548C1.86971 0.675596 2.00799 0.618198 2.10991 0.516147L2.46787 0.159278C2.56988 0.0572924 2.70823 0 2.85248 0C2.99673 0 3.13508 0.0572924 3.23709 0.159278L3.59469 0.516873L3.59432 0.516147Z" fill="#53626D"/>
</svg>
